<?xml version="1.0" standalone="no"?>
<!DOCTYPE svg PUBLIC "-//W3C//DTD SVG 20010904//EN"
 "http://www.w3.org/TR/2001/REC-SVG-20010904/DTD/svg10.dtd">
<svg version="1.0" xmlns="http://www.w3.org/2000/svg"
 width="62.000000pt" height="75.000000pt" viewBox="0 0 62.000000 75.000000"
 preserveAspectRatio="xMidYMid meet">
<metadata>
Created by potrace 1.10, written by Peter Selinger 2001-2011
</metadata>
<g transform="translate(0.000000,75.000000) scale(0.100000,-0.100000)"
fill="#000000" stroke="none">
<path d="M460 395 c0 -8 -9 -15 -20 -15 -11 0 -20 -4 -20 -10 0 -5 9 -10 20
-10 11 0 20 -7 20 -15 0 -8 7 -15 15 -15 9 0 12 6 9 15 -4 10 0 15 15 15 12 0
21 5 21 10 0 6 -9 10 -21 10 -15 0 -19 5 -15 15 3 9 0 15 -9 15 -8 0 -15 -7
-15 -15z"/>
</g>
</svg>
